<?xml version="1.0" encoding="UTF-8"?>
<!DOCTYPE svg PUBLIC "-//W3C//DTD SVG 1.1//EN" "http://www.w3.org/Graphics/SVG/1.1/DTD/svg11.dtd">
<!-- Creator: CorelDRAW X6 -->
<svg xmlns="http://www.w3.org/2000/svg" xml:space="preserve" width="100mm" height="100mm" version="1.1" shape-rendering="geometricPrecision" text-rendering="geometricPrecision" image-rendering="optimizeQuality" fill-rule="evenodd" clip-rule="evenodd"
viewBox="0 0 10000 10000"
 xmlns:xlink="http://www.w3.org/1999/xlink">
 <g id="Layer_x0020_1">
  <metadata id="CorelCorpID_0Corel-Layer"/>
  <g>
   <polygon fill="green" points="1,12 9988,12 9988,3277 1,3277 "/>
   <path id="1" fill="green" fill-rule="nonzero" d="M9993 16l-9987 0 -9 -9 9987 0 14 7 -5 2zm-9 -9l14 0 0 7 -14 -7zm-5 3268l0 -3265 19 4 0 3265 -5 2 -14 -6zm19 4l0 2 -5 0 5 -2zm-10001 -6l9987 0 9 8 -9987 0 -15 -6 6 -2zm9 8l-15 0 0 -6 15 6zm5 -3267l0 3265 -20 -4 0 -3265 6 -3 14 7zm-20 -4l0 -3 6 0 -6 3z"/>
  </g>
  <g>
   <polygon fill="green" points="22,6744 10010,6744 10010,10010 22,10010 "/>
   <path id="1" fill="green" fill-rule="nonzero" d="M10014 6748l-9987 0 -9 -8 9987 0 14 6 -5 2zm-9 -8l14 0 0 6 -14 -6zm-5 3268l0 -3266 19 4 0 3265 -5 3 -14 -6zm19 3l0 3 -5 0 5 -3zm-10001 -6l9987 0 9 9 -9987 0 -15 -6 6 -3zm9 9l-15 0 0 -6 15 6zm5 -3268l0 3265 -20 -3 0 -3266 6 -2 14 6zm-20 -4l0 -2 6 0 -6 2z"/>
  </g>
 </g>
</svg>
