<svg  viewBox="0 0 1190.55 841.89" xml:space="preserve" color-interpolation-filters="sRGB"
		class="st14">
		<g>
		<title>Страница-1</title>
		<g id="shape233-1" transform="translate(596.304,-291.148)">
			<title>Лист.233</title>
			<path d="M1.99 838.04 L2.35 838.04 L2.7 838.18 L3.06 838.32 L3.34 838.61 L3.56 838.89 L3.77 839.18 L3.91 839.54 L3.91
						 839.96 L3.91 840.32 L3.77 840.75 L3.56 841.03 L3.34 841.32 L3.06 841.6 L2.7 841.75 L2.35 841.89 L1.99 841.89
						 L1.56 841.89 L1.21 841.75 L0.85 841.6 L0.57 841.32 L0.36 841.03 L0.21 840.75 L0.07 840.32 L0 839.96 L0.07
						 839.54 L0.21 839.18 L0.36 838.89 L0.57 838.61 L0.85 838.32 L1.21 838.18 L1.56 838.04 L1.99 838.04 L1.99
						 838.04 Z" class="st1"/>
		</g>
		<g id="shape377-3" transform="translate(235.276,-399.146)">
			<title>Лист.377</title>
			<desc>Карасук I</desc>
			<rect x="0" y="838.516" width="61.4773" height="3.37329" class="st2"/>
			<text x="36.01" y="841.7" class="st3">Карасук I</text>		</g>
		<g id="shape379-6" transform="translate(-530.079,419.523) rotate(-90)">
			<title>Лист.379</title>
			<desc>Осолодино</desc>
			<rect x="0" y="837.392" width="45.3497" height="4.49772" class="st2"/>
			<text x="0" y="841.14" class="st3">Осолодино</text>		</g>
		<g id="shape380-9" transform="translate(-510.822,433.701) rotate(-90)">
			<title>Лист.380</title>
			<desc>Карасук III</desc>
			<rect x="0" y="837.392" width="39.1825" height="4.49772" class="st2"/>
			<text x="10.38" y="841.14" class="st3">Карасук III</text>		</g>
		<g id="shape381-12" transform="translate(-493.228,440.787) rotate(-90)">
			<title>Лист.381</title>
			<desc>Чебачий</desc>
			<rect x="0" y="837.392" width="36.1611" height="4.49772" class="st2"/>
			<text x="12.22" y="841.14" class="st3">Чебачий</text>		</g>
		<g id="shape382-15" transform="translate(-417.864,446.457) rotate(-90)">
			<title>Лист.382</title>
			<desc>Хабары</desc>
			<rect x="0" y="837.392" width="34.1836" height="4.49772" class="st2"/>
			<text x="0" y="841.14" class="st3">Хабары</text>		</g>
		<g id="shape389-18" transform="translate(-435.118,442.783) rotate(-90)">
			<title>Лист.389</title>
			<desc>Краснозерское</desc>
			<rect x="0" y="836.465" width="61.5232" height="5.42429" class="st2"/>
			<text x="0" y="840.68" class="st3">Краснозерское</text>		</g>
		<g id="shape430-21" transform="translate(595.276,-432.283)">
			<title>Лист.430</title>
			<desc>Черепаново</desc>
			<rect x="0" y="837.392" width="48.1332" height="4.49772" class="st2"/>
			<text x="14.36" y="841.14" class="st3">Черепаново</text>		</g>
		<g id="shape563-24" transform="translate(-46.6927,523.569) rotate(-90)">
			<title>Лист.563</title>
			<desc>Артышта II</desc>
			<rect x="0" y="836.465" width="43.6739" height="5.42429" class="st2"/>
			<text x="0" y="840.68" class="st3">Артышта II</text>		</g>
		<g id="group564-27" transform="translate(191.54,-235.312)">
			<title>Лист.564</title>
			<g id="shape565-28" transform="translate(-1.44884E-14,-1.96081)">
				<title>Лист.565</title>
				<path d="M0 832.51 L1.16 832.51 L1.16 836.6 L1.55 836.6 L1.85 836.52 L2.09 836.43 L2.24 836.26 L2.63 835.75 L3.09
							 834.73 L3.4 833.88 L3.63 833.36 L3.94 833.02 L4.33 832.77 L4.79 832.51 L5.26 832.51 L5.8 832.51 L5.95
							 832.51 L5.95 833.54 L5.87 833.54 L5.72 833.54 L5.56 833.54 L5.49 833.54 L5.26 833.54 L5.02 833.62 L4.87
							 833.71 L4.71 833.88 L4.41 834.3 L4.1 835.07 L3.71 836.09 L3.32 836.6 L3.01 836.86 L2.63 837.12 L3.01
							 837.29 L3.48 837.63 L3.86 838.14 L4.25 838.74 L6.03 841.89 L4.64 841.89 L3.17 839.33 L2.63 838.48 L2.16
							 837.88 L2.01 837.71 L1.78 837.63 L1.47 837.54 L1.16 837.46 L1.16 841.89 L0 841.89 L0 832.51 L0 832.51
							 Z" class="st4"/>
			</g>
			<g id="shape566-30" transform="translate(6.49181,-1.7903)">
				<title>Лист.566</title>
				<path d="M4.48 840.87 L3.86 841.38 L3.32 841.63 L2.78 841.8 L2.16 841.89 L1.7 841.8 L1.24 841.72 L0.85 841.55 L0.54
							 841.29 L0.31 841.04 L0.15 840.7 L0.08 840.36 L0 839.93 L0.08 839.42 L0.23 838.99 L0.46 838.65 L0.77
							 838.31 L1.16 838.14 L1.55 837.97 L1.93 837.88 L2.47 837.8 L3.56 837.63 L4.33 837.37 L4.33 837.2 L4.41
							 837.12 L4.33 836.77 L4.33 836.52 L4.17 836.26 L4.1 836.09 L3.86 835.92 L3.56 835.84 L3.25 835.75 L2.86
							 835.75 L2.55 835.75 L2.24 835.75 L1.93 835.84 L1.78 836.01 L1.62 836.18 L1.47 836.43 L1.31 836.69 L1.24
							 837.03 L0.23 836.86 L0.39 836.18 L0.7 835.67 L0.85 835.5 L1.08 835.33 L1.31 835.15 L1.62 834.98 L2.24
							 834.81 L3.01 834.73 L3.71 834.81 L4.33 834.98 L4.71 835.15 L5.02 835.5 L5.26 835.84 L5.41 836.26 L5.41
							 836.69 L5.41 837.29 L5.41 838.91 L5.41 840.18 L5.49 840.87 L5.56 841.29 L5.8 841.72 L4.64 841.72 L4.56
							 841.38 L4.48 840.87 L4.48 840.87 ZM4.33 838.31 L3.63 838.56 L2.63 838.74 L2.09 838.82 L1.7 838.99 L1.47
							 839.16 L1.31 839.33 L1.16 839.59 L1.16 839.93 L1.16 840.1 L1.24 840.36 L1.31 840.53 L1.47 840.7 L1.62
							 840.78 L1.85 840.87 L2.09 840.95 L2.4 840.95 L3.01 840.87 L3.48 840.7 L3.71 840.53 L3.94 840.36 L4.1
							 840.1 L4.17 839.84 L4.33 839.42 L4.33 838.74 L4.33 838.31 L4.33 838.31 Z" class="st4"/>
			</g>
			<g id="shape567-32" transform="translate(12.9063,-1.7903)">
				<title>Лист.567</title>
				<path d="M1.93 838.65 L1.93 837.71 L2.47 837.71 L2.78 837.71 L3.01 837.54 L3.25 837.37 L3.4 837.12 L3.48 836.77 L3.48
							 836.52 L3.4 836.35 L3.32 836.09 L3.17 836.01 L2.86 835.75 L2.47 835.67 L2.09 835.75 L1.7 836.01 L1.39
							 836.35 L1.24 836.86 L0.23 836.69 L0.39 836.26 L0.54 835.84 L0.77 835.5 L1 835.24 L1.31 834.98 L1.62
							 834.9 L2.01 834.81 L2.47 834.73 L2.94 834.81 L3.4 834.9 L3.71 835.07 L4.02 835.33 L4.25 835.67 L4.48
							 836.01 L4.56 836.35 L4.64 836.77 L4.56 837.2 L4.41 837.54 L4.17 837.8 L3.86 838.14 L4.25 838.39 L4.56
							 838.82 L4.71 839.25 L4.79 839.84 L4.79 840.27 L4.64 840.61 L4.48 841.04 L4.17 841.29 L3.86 841.55 L3.48
							 841.72 L3.01 841.8 L2.47 841.89 L2.01 841.89 L1.55 841.72 L1.16 841.55 L0.77 841.38 L0.54 841.04 L0.31
							 840.7 L0.15 840.27 L0 839.84 L1 839.59 L1.08 839.84 L1.24 840.18 L1.39 840.36 L1.55 840.61 L1.78 840.78
							 L2.01 840.87 L2.24 840.95 L2.47 840.95 L2.78 840.95 L3.01 840.87 L3.17 840.78 L3.4 840.61 L3.56 840.44
							 L3.63 840.27 L3.71 840.01 L3.79 839.76 L3.71 839.42 L3.56 839.08 L3.32 838.82 L3.01 838.74 L2.7 838.65
							 L2.16 838.65 L2.09 838.65 L1.93 838.65 L1.93 838.65 Z" class="st4"/>
			</g>
			<g id="shape568-34" transform="translate(18.548,-1.7903)">
				<title>Лист.568</title>
				<path d="M4.48 840.87 L3.86 841.38 L3.32 841.63 L2.78 841.8 L2.16 841.89 L1.7 841.8 L1.24 841.72 L0.85 841.55 L0.54
							 841.29 L0.31 841.04 L0.15 840.7 L0.08 840.36 L0 839.93 L0.08 839.42 L0.23 838.99 L0.46 838.65 L0.77
							 838.31 L1.16 838.14 L1.55 837.97 L1.93 837.88 L2.47 837.8 L3.56 837.63 L4.33 837.37 L4.33 837.2 L4.33
							 837.12 L4.33 836.77 L4.33 836.52 L4.17 836.26 L4.1 836.09 L3.86 835.92 L3.56 835.84 L3.25 835.75 L2.86
							 835.75 L2.55 835.75 L2.24 835.75 L1.93 835.84 L1.78 836.01 L1.62 836.18 L1.47 836.43 L1.31 836.69 L1.24
							 837.03 L0.23 836.86 L0.39 836.18 L0.7 835.67 L0.85 835.5 L1.08 835.33 L1.31 835.15 L1.62 834.98 L2.24
							 834.81 L3.01 834.73 L3.71 834.81 L4.33 834.98 L4.71 835.15 L5.02 835.5 L5.26 835.84 L5.41 836.26 L5.41
							 836.69 L5.41 837.29 L5.41 838.91 L5.41 840.18 L5.49 840.87 L5.56 841.29 L5.8 841.72 L4.64 841.72 L4.56
							 841.38 L4.48 840.87 L4.48 840.87 ZM4.33 838.31 L3.63 838.56 L2.63 838.74 L2.09 838.82 L1.7 838.99 L1.47
							 839.16 L1.31 839.33 L1.16 839.59 L1.16 839.93 L1.16 840.1 L1.24 840.36 L1.31 840.53 L1.47 840.7 L1.62
							 840.78 L1.85 840.87 L2.09 840.95 L2.4 840.95 L3.01 840.87 L3.48 840.7 L3.71 840.53 L3.94 840.36 L4.1
							 840.1 L4.17 839.84 L4.33 839.42 L4.33 838.74 L4.33 838.31 L4.33 838.31 Z" class="st4"/>
			</g>
			<g id="shape569-36" transform="translate(24.8853,-1.96081)">
				<title>Лист.569</title>
				<path d="M0 841.89 L2.32 838.39 L0.15 835.07 L1.55 835.07 L2.47 836.69 L2.7 837.12 L2.94 837.46 L3.17 837.03 L3.4
							 836.69 L4.41 835.07 L5.72 835.07 L3.56 838.31 L5.87 841.89 L4.56 841.89 L3.25 839.76 L2.94 839.25 L1.31
							 841.89 L0 841.89 L0 841.89 Z" class="st4"/>
			</g>
			<g id="shape570-38" transform="translate(31.1452,-1.7903)">
				<title>Лист.570</title>
				<path d="M4.41 839.25 L5.41 839.42 L5.33 839.93 L5.1 840.44 L4.87 840.87 L4.56 841.21 L4.17 841.55 L3.79 841.72 L3.32
							 841.8 L2.86 841.89 L2.24 841.8 L1.7 841.63 L1.24 841.38 L0.77 840.95 L0.46 840.44 L0.23 839.84 L0.08
							 839.16 L0 838.31 L0 837.8 L0.08 837.29 L0.23 836.86 L0.39 836.43 L0.54 836.01 L0.77 835.67 L1.08 835.41
							 L1.39 835.15 L1.7 834.98 L2.09 834.9 L2.47 834.81 L2.86 834.73 L3.32 834.81 L3.79 834.9 L4.17 835.07
							 L4.48 835.33 L4.79 835.67 L5.02 836.01 L5.26 836.43 L5.33 836.95 L4.33 837.12 L4.25 836.77 L4.1 836.52
							 L3.94 836.26 L3.79 836.09 L3.63 835.92 L3.4 835.75 L3.17 835.75 L2.86 835.67 L2.55 835.75 L2.16 835.84
							 L1.85 836.09 L1.62 836.35 L1.39 836.69 L1.24 837.12 L1.16 837.71 L1.08 838.31 L1.16 838.99 L1.24 839.5
							 L1.39 839.93 L1.55 840.27 L1.85 840.61 L2.16 840.78 L2.47 840.87 L2.86 840.95 L3.17 840.87 L3.4 840.87
							 L3.63 840.7 L3.86 840.53 L4.1 840.27 L4.25 840.01 L4.33 839.67 L4.41 839.25 L4.41 839.25 Z"
						class="st4"/>
			</g>
			<g id="shape571-40" transform="translate(37.4825,-1.96081)">
				<title>Лист.571</title>
				<path d="M0 835.07 L1.08 835.07 L1.08 838.05 L1.47 837.97 L1.78 837.8 L2.01 837.37 L2.4 836.6 L2.63 835.92 L2.86
							 835.5 L3.09 835.33 L3.32 835.15 L3.63 835.07 L4.1 835.07 L4.33 835.07 L4.33 836.01 L4.02 836.01 L3.71
							 836.09 L3.48 836.18 L3.32 836.43 L3.09 837.03 L2.86 837.54 L2.7 837.97 L2.4 838.14 L2.09 838.39 L2.4
							 838.56 L2.78 838.82 L3.09 839.25 L3.4 839.76 L4.56 841.89 L3.4 841.89 L2.24 839.76 L1.93 839.25 L1.7
							 838.91 L1.39 838.82 L1.08 838.74 L1.08 841.89 L0 841.89 L0 835.07 L0 835.07 Z" class="st4"/>
			</g>
			<g id="shape572-42" transform="translate(42.7377,-1.96081)">
				<title>Лист.572</title>
				<path d="M0 835.07 L1.08 835.07 L1.08 840.27 L4.02 835.07 L5.1 835.07 L5.1 841.89 L4.1 841.89 L4.1 836.69 L1.16 841.89
							 L0 841.89 L0 835.07 L0 835.07 Z" class="st4"/>
			</g>
			<g id="shape573-44" transform="translate(49.075,-1.7903)">
				<title>Лист.573</title>
				<path d="M4.64 839.5 L5.72 839.67 L5.56 840.18 L5.33 840.61 L5.1 840.95 L4.79 841.29 L4.41 841.55 L4.02 841.72 L3.48
							 841.8 L3.01 841.89 L2.32 841.8 L1.78 841.63 L1.24 841.38 L0.85 840.95 L0.46 840.44 L0.23 839.84 L0.08
							 839.16 L0 838.39 L0.08 837.54 L0.23 836.86 L0.46 836.26 L0.85 835.67 L1.24 835.33 L1.78 834.98 L2.32
							 834.81 L2.94 834.73 L3.56 834.81 L4.1 834.98 L4.56 835.24 L4.95 835.67 L5.33 836.18 L5.56 836.77 L5.72
							 837.54 L5.8 838.31 L5.8 838.39 L5.8 838.65 L1.16 838.65 L1.16 839.16 L1.31 839.59 L1.47 840.01 L1.7
							 840.36 L2.01 840.61 L2.32 840.78 L2.63 840.87 L3.01 840.95 L3.25 840.95 L3.56 840.87 L3.79 840.78 L4.02
							 840.61 L4.17 840.44 L4.33 840.18 L4.48 839.84 L4.64 839.5 L4.64 839.5 ZM1.16 837.63 L4.64 837.63 L4.64
							 837.29 L4.56 836.95 L4.41 836.6 L4.25 836.35 L4.02 836.09 L3.71 835.84 L3.32 835.75 L2.94 835.67 L2.63
							 835.75 L2.32 835.84 L2.01 836.01 L1.7 836.26 L1.55 836.52 L1.31 836.86 L1.24 837.2 L1.16 837.63 L1.16
							 837.63 Z" class="st4"/>
			</g>
			<g id="shape574-46" transform="translate(58.6581,-1.96081)">
				<title>Лист.574</title>
				<path d="M4.56 835.07 L4.56 838.05 L5.02 837.97 L5.26 837.8 L5.56 837.37 L5.87 836.6 L6.26 835.75 L6.57 835.33 L6.72
							 835.24 L6.96 835.15 L7.19 835.07 L7.5 835.07 L7.88 835.07 L7.88 836.01 L7.57 836.01 L7.19 836.09 L7.03
							 836.18 L6.88 836.43 L6.65 837.03 L6.41 837.54 L6.18 837.97 L5.95 838.14 L5.56 838.39 L5.95 838.56 L6.26
							 838.82 L6.57 839.25 L6.96 839.76 L8.11 841.89 L6.96 841.89 L5.8 839.76 L5.49 839.25 L5.18 838.91 L4.95
							 838.82 L4.56 838.74 L4.56 841.89 L3.48 841.89 L3.48 838.74 L3.17 838.82 L2.86 838.91 L2.63 839.25 L2.32
							 839.76 L1.16 841.89 L0 841.89 L1.16 839.76 L1.47 839.25 L1.78 838.82 L2.16 838.56 L2.47 838.39 L2.09
							 838.14 L1.85 837.88 L1.62 837.37 L1.24 836.52 L1.16 836.26 L1 836.09 L0.77 836.09 L0.54 836.01 L0.46
							 836.01 L0.23 836.01 L0.23 835.07 L0.39 835.07 L0.93 835.07 L1.24 835.15 L1.47 835.33 L1.7 835.5 L1.93
							 835.92 L2.16 836.6 L2.55 837.37 L2.78 837.8 L3.09 837.97 L3.48 838.05 L3.48 835.07 L4.56 835.07 L4.56
							 835.07 Z" class="st4"/>
			</g>
			<g id="shape575-48" transform="translate(67.7776,-1.96081)">
				<title>Лист.575</title>
				<path d="M0 841.89 L0 840.61 L1.24 840.61 L1.24 841.89 L0 841.89 L0 841.89 Z" class="st4"/>
			</g>
			<g id="shape576-50" transform="translate(70.0188,0)">
				<title>Лист.576</title>
				<path d="M1.7 833.11 L6.03 833.11 L6.03 838.99 L6.65 838.99 L6.65 841.89 L5.8 841.89 L5.8 839.93 L0.93 839.93 L0.93
							 841.89 L0 841.89 L0 838.99 L0.62 838.99 L0.85 838.56 L1.08 837.97 L1.24 837.37 L1.39 836.69 L1.55 835.92
							 L1.62 835.07 L1.62 834.13 L1.7 833.11 L1.7 833.11 ZM2.55 834.05 L2.47 835.67 L2.24 836.95 L2.01 838.05
							 L1.62 838.99 L4.95 838.99 L4.95 834.05 L2.55 834.05 L2.55 834.05 Z" class="st4"/>
			</g>
			<g id="shape577-52" transform="translate(78.1335,-1.96081)">
				<title>Лист.577</title>
				<path d="M0 841.89 L0 840.61 L1.24 840.61 L1.24 841.89 L0 841.89 L0 841.89 Z" class="st4"/>
			</g>
		</g>
		<g id="shape578-54" transform="translate(259.252,-295.951)">
			<title>Лист.578</title>
			<desc>Кулунда</desc>
			<rect x="0" y="838.516" width="44.0554" height="3.37329" class="st2"/>
			<text x="20.91" y="841.7" class="st3">Кулунда</text>		</g>
		<g id="shape580-57" transform="translate(263.823,-384.68)">
			<title>Лист.580</title>
			<desc>Бурла</desc>
			<rect x="0" y="837.392" width="35.2322" height="4.49772" class="st2"/>
			<text x="18.12" y="841.14" class="st3">Бурла</text>		</g>
		<g id="shape581-60" transform="translate(265.24,-368.504)">
			<title>Лист.581</title>
			<desc>Айнак</desc>
			<rect x="0" y="837.392" width="35.2322" height="4.49772" class="st2"/>
			<text x="18.6" y="841.14" class="st3">Айнак</text>		</g>
		<g id="shape582-63" transform="translate(246.614,-346.413)">
			<title>Лист.582</title>
			<desc>Красный Дол</desc>
			<rect x="0" y="837.392" width="54.0547" height="4.49772" class="st2"/>
			<text x="17.34" y="841.14" class="st3">Красный Дол</text>		</g>
		<g id="shape583-66" transform="translate(256.535,-332.239)">
			<title>Лист.583</title>
			<desc>Славгород</desc>
			<rect x="0" y="837.392" width="45.4885" height="4.49772" class="st2"/>
			<text x="15.43" y="841.14" class="st3">Славгород</text>		</g>
		<g id="shape584-69" transform="translate(267.266,-314.646)">
			<title>Лист.584</title>
			<desc>Табуны</desc>
			<rect x="0" y="837.392" width="35.2322" height="4.49772" class="st2"/>
			<text x="14.17" y="841.14" class="st3">Табуны</text>		</g>
		<g id="shape585-72" transform="translate(-369.09,458.634) rotate(-90)">
			<title>Лист.585</title>
			<desc>Камень-на-Оби</desc>
			<rect x="0" y="837.392" width="60.3659" height="4.49772" class="st2"/>
			<text x="0" y="841.14" class="st3">Камень-на-Оби</text>		</g>
		<g id="shape586-75" transform="translate(-345.581,463.465) rotate(-90)">
			<title>Лист.586</title>
			<desc>Плотинная</desc>
			<rect x="0" y="837.392" width="43.358" height="4.49772" class="st2"/>
			<text x="0" y="841.14" class="st3">Плотинная</text>		</g>
		<g id="shape587-78" transform="translate(-404.523,447.874) rotate(-90)">
			<title>Лист.587</title>
			<desc>Урываево</desc>
			<rect x="0" y="837.392" width="39.604" height="4.49772" class="st2"/>
			<text x="0" y="841.14" class="st3">Урываево</text>		</g>
		<g id="shape588-81" transform="translate(-382.677,454.506) rotate(-90)">
			<title>Лист.588</title>
			<desc>Световская</desc>
			<rect x="0" y="837.392" width="47.7345" height="4.49772" class="st2"/>
			<text x="0" y="841.14" class="st3">Световская</text>		</g>
		<g id="shape589-84" transform="translate(-395.433,464.552) rotate(-90)">
			<title>Лист.589</title>
			<desc>Панкрушиха</desc>
			<rect x="0" y="837.392" width="49.2763" height="4.49772" class="st2"/>
			<text x="14.85" y="841.14" class="st3">Панкрушиха</text>		</g>
		<g id="shape590-87" transform="translate(-325.984,482.184) rotate(-90)">
			<title>Лист.590</title>
			<desc>Тараданово</desc>
			<rect x="0" y="837.392" width="48.7783" height="4.49772" class="st2"/>
			<text x="15.09" y="841.14" class="st3">Тараданово</text>		</g>
		<g id="shape591-90" transform="translate(-311.565,470.013) rotate(-90)">
			<title>Лист.591</title>
			<desc>Сузун</desc>
			<rect x="0" y="837.392" width="24.4349" height="4.49772" class="st2"/>
			<text x="0" y="841.14" class="st3">Сузун</text>		</g>
		<g id="shape592-93" transform="translate(-297.392,473.477) rotate(-90)">
			<title>Лист.592</title>
			<desc>Рямы</desc>
			<rect x="0" y="837.392" width="24.1859" height="4.49772" class="st2"/>
			<text x="0" y="841.14" class="st3">Рямы</text>		</g>
		<g id="shape593-96" transform="translate(-267.042,480.472) rotate(-90)">
			<title>Лист.593</title>
			<desc>Вор.-Молод.</desc>
			<rect x="0" y="837.392" width="53.5763" height="4.49772" class="st2"/>
			<text x="0" y="841.14" class="st3">Вор.-Молод.</text>		</g>
		<g id="shape597-99" transform="translate(606.669,-421.945)">
			<title>Лист.597</title>
			<desc>Безменово</desc>
			<rect x="0" y="837.392" width="45.2998" height="4.49772" class="st2"/>
			<text x="0" y="841.14" class="st3">Безменово</text>		</g>
		<g id="shape598-102" transform="translate(601.805,-391.239)">
			<title>Лист.598</title>
			<desc>Усть-Тальменская</desc>
			<rect x="0" y="837.392" width="71.98" height="4.49772" class="st2"/>
			<text x="0" y="841.14" class="st3">Усть-Тальменская</text>		</g>
		<g id="shape599-105" transform="translate(602.362,-407.933)">
			<title>Лист.599</title>
			<desc>Красный Боец</desc>
			<rect x="0" y="837.392" width="57.9312" height="4.49772" class="st2"/>
			<text x="0" y="841.14" class="st3">Красный Боец</text>		</g>
		<g id="shape600-108" transform="translate(600.236,-375.591)">
			<title>Лист.600</title>
			<desc>Путевой пост 162 км</desc>
			<rect x="0" y="837.392" width="60.9449" height="4.49772" class="st2"/>
			<text x="0" y="841.14" class="st3">Путевой пост 162 км</text>		</g>
		<g id="shape601-111" transform="translate(-242.747,519.239) rotate(-90)">
			<title>Лист.601</title>
			<desc>Боровиха</desc>
			<rect x="0" y="837.392" width="38.7665" height="4.49772" class="st2"/>
			<text x="0" y="841.14" class="st3">Боровиха</text>		</g>
		<g id="shape602-114" transform="translate(-226.57,522.992) rotate(-90)">
			<title>Лист.602</title>
			<desc>Алтайская (п. Г)</desc>
			<rect x="0" y="829.72" width="51.5846" height="12.1701" class="st2"/>
			<text x="0" y="837.3" class="st3">Алтайская (п. Г)</text>		</g>
		<g id="shape603-117" transform="translate(-207.669,524.97) rotate(-90)">
			<title>Лист.603</title>
			<desc>Шпагино</desc>
			<rect x="0" y="837.392" width="37.4114" height="4.49772" class="st2"/>
			<text x="0" y="841.14" class="st3">Шпагино</text>		</g>
		<g id="shape604-120" transform="translate(-183.739,525.501) rotate(-90)">
			<title>Лист.604</title>
			<desc>Батунная</desc>
			<rect x="0" y="837.392" width="37.9423" height="4.49772" class="st2"/>
			<text x="0" y="841.14" class="st3">Батунная</text>		</g>
		<g id="shape605-123" transform="translate(-158.886,522.992) rotate(-90)">
			<title>Лист.605</title>
			<desc>Заринская</desc>
			<rect x="0" y="837.392" width="40.246" height="4.49772" class="st2"/>
			<text x="0" y="841.14" class="st3">Заринская</text>		</g>
		<g id="shape606-126" transform="translate(-137.205,522.992) rotate(-90)">
			<title>Лист.606</title>
			<desc>Смазнево</desc>
			<rect x="0" y="837.392" width="37.9423" height="4.49772" class="st2"/>
			<text x="0" y="841.14" class="st3">Смазнево</text>		</g>
		<g id="shape607-129" transform="translate(-116.446,522.992) rotate(-90)">
			<title>Лист.607</title>
			<desc>Голуха</desc>
			<rect x="0" y="837.392" width="37.9423" height="4.49772" class="st2"/>
			<text x="0" y="841.14" class="st3">Голуха</text>		</g>
		<g id="shape608-132" transform="translate(-96.5522,522.992) rotate(-90)">
			<title>Лист.608</title>
			<desc>Тягун</desc>
			<rect x="0" y="837.392" width="37.9423" height="4.49772" class="st2"/>
			<text x="0" y="841.14" class="st3">Тягун</text>		</g>
		<g id="shape609-135" transform="translate(-72.1607,522.992) rotate(-90)">
			<title>Лист.609</title>
			<desc>Аламбай</desc>
			<rect x="0" y="837.392" width="37.9423" height="4.49772" class="st2"/>
			<text x="0" y="841.14" class="st3">Аламбай</text>		</g>
		<g id="shape610-138" transform="translate(520.866,-303.307)">
			<title>Лист.610</title>
			<desc>Алтайская</desc>
			<rect x="0" y="837.391" width="52.4409" height="4.49856" class="st2"/>
			<text x="23.29" y="841.14" class="st3">Алтайская</text>		</g>
		<g id="shape612-141" transform="translate(524.409,-286.828)">
			<title>Лист.612</title>
			<desc>Барнаул</desc>
			<rect x="0" y="836.75" width="42.1047" height="5.14025" class="st2"/>
			<text x="18.34" y="840.82" class="st3">Барнаул</text>		</g>
		<g id="shape614-144" transform="translate(502.521,-342.746)">
			<title>Лист.614</title>
			<desc>Среднесибирская</desc>
			<rect x="0" y="837.392" width="75.747" height="4.49772" class="st2"/>
			<text x="25.9" y="841.14" class="st3">Среднесибирская</text>		</g>
		<g id="shape616-147" transform="translate(540.809,-332.239)">
			<title>Лист.616</title>
			<desc>Озерки</desc>
			<rect x="0" y="837.392" width="35.2322" height="4.49772" class="st2"/>
			<text x="15.16" y="841.14" class="st3">Озерки</text>		</g>
		<g id="shape617-150" transform="translate(538.784,-323.15)">
			<title>Лист.617</title>
			<desc>Цаплино</desc>
			<rect x="0" y="837.392" width="35.2322" height="4.49772" class="st2"/>
			<text x="10.71" y="841.14" class="st3">Цаплино</text>		</g>
		<g id="shape618-153" transform="translate(529.149,-313.814)">
			<title>Лист.618</title>
			<desc>Повалиха</desc>
			<rect x="0" y="837.392" width="44.3792" height="4.49772" class="st2"/>
			<text x="17.02" y="841.14" class="st3">Повалиха</text>		</g>
		<g id="shape619-156" transform="translate(523.656,-294.557)">
			<title>Лист.619</title>
			<desc>Присягино</desc>
			<rect x="0" y="837.392" width="47.525" height="4.49772" class="st2"/>
			<text x="18.09" y="841.14" class="st3">Присягино</text>		</g>
		<g id="shape620-159" transform="translate(-509.99,588.189) rotate(-90)">
			<title>Лист.620</title>
			<desc>Кильты</desc>
			<rect x="0" y="837.392" width="35.2322" height="4.49772" class="st2"/>
			<text x="14.7" y="841.14" class="st3">Кильты</text>		</g>
		<g id="shape621-162" transform="translate(-461.216,449.291) rotate(-90)">
			<title>Лист.621</title>
			<desc>Зубково</desc>
			<rect x="0" y="837.392" width="35.8499" height="4.49772" class="st2"/>
			<text x="13.3" y="841.14" class="st3">Зубково</text>		</g>
		<g id="shape622-165" transform="translate(-491.811,600.523) rotate(-90)">
			<title>Лист.622</title>
			<desc>Яготинская</desc>
			<rect x="0" y="837.392" width="46.3493" height="4.49772" class="st2"/>
			<text x="14.87" y="841.14" class="st3">Яготинская</text>		</g>
		<g id="shape623-168" transform="translate(-468.888,623.386) rotate(-90)">
			<title>Лист.623</title>
			<desc>Новоблаговещенка</desc>
			<rect x="0" y="837.392" width="64.9612" height="4.49772" class="st2"/>
			<text x="10.9" y="841.14" class="st3">Новоблаговещенка</text>		</g>
		<g id="shape624-171" transform="translate(-441.959,606.234) rotate(-90)">
			<title>Лист.624</title>
			<desc>Леньки</desc>
			<rect x="0" y="837.392" width="47.4279" height="4.49772" class="st2"/>
			<text x="27.74" y="841.14" class="st3">Леньки</text>		</g>
		<g id="shape625-174" transform="translate(-425.783,606.614) rotate(-90)">
			<title>Лист.625</title>
			<desc>Гилевка</desc>
			<rect x="0" y="837.392" width="47.4279" height="4.49772" class="st2"/>
			<text x="24.84" y="841.14" class="st3">Гилевка</text>		</g>
		<g id="shape626-177" transform="translate(-408.189,609.068) rotate(-90)">
			<title>Лист.626</title>
			<desc>Овечкино</desc>
			<rect x="0" y="837.392" width="47.4279" height="4.49772" class="st2"/>
			<text x="20.48" y="841.14" class="st3">Овечкино</text>		</g>
		<g id="shape627-180" transform="translate(-388.346,610.866) rotate(-90)">
			<title>Лист.627</title>
			<desc>Корчино</desc>
			<rect x="0" y="837.392" width="47.4279" height="4.49772" class="st2"/>
			<text x="24.13" y="841.14" class="st3">Корчино</text>		</g>
		<g id="shape628-183" transform="translate(-371.093,610.866) rotate(-90)">
			<title>Лист.628</title>
			<desc>Паново</desc>
			<rect x="0" y="837.392" width="47.4279" height="4.49772" class="st2"/>
			<text x="26.6" y="841.14" class="st3">Паново</text>		</g>
		<g id="shape629-186" transform="translate(-355.502,613.701) rotate(-90)">
			<title>Лист.629</title>
			<desc>Ребриха</desc>
			<rect x="0" y="837.392" width="47.4279" height="4.49772" class="st2"/>
			<text x="23.63" y="841.14" class="st3">Ребриха</text>		</g>
		<g id="shape630-189" transform="translate(-335.66,615.118) rotate(-90)">
			<title>Лист.630</title>
			<desc>Дальний</desc>
			<rect x="0" y="837.392" width="47.4279" height="4.49772" class="st2"/>
			<text x="23.38" y="841.14" class="st3">Дальний</text>		</g>
		<g id="shape631-192" transform="translate(-319.68,610.444) rotate(-90)">
			<title>Лист.631</title>
			<desc>Арбузовка</desc>
			<rect x="0" y="838.42" width="41.6759" height="3.46967" class="st2"/>
			<text x="12.66" y="841.66" class="st3">Арбузовка</text>		</g>
		<g id="shape632-195" transform="translate(-300.472,609.449) rotate(-90)">
			<title>Лист.632</title>
			<desc>Сарайский</desc>
			<rect x="0" y="837.392" width="41.7381" height="4.49772" class="st2"/>
			<text x="11.72" y="841.14" class="st3">Сарайский</text>		</g>
		<g id="shape633-198" transform="translate(-283.465,598.93) rotate(-90)">
			<title>Лист.633</title>
			<desc>Штабка</desc>
			<rect x="0" y="837.392" width="32.0007" height="4.49772" class="st2"/>
			<text x="11.02" y="841.14" class="st3">Штабка</text>		</g>
		<g id="shape635-201" transform="translate(418.11,-139.65)">
			<title>Лист.635</title>
			<desc>Локоть</desc>
			<rect x="0" y="837.724" width="29.6016" height="4.16548" class="st2"/>
			<text x="5.25" y="841.31" class="st3">Локоть</text>		</g>
		<g id="shape636-204" transform="translate(408.424,-167.244)">
			<title>Лист.636</title>
			<desc>Рубцовск</desc>
			<rect x="0" y="837.392" width="45.1194" height="4.49772" class="st2"/>
			<text x="9.55" y="841.14" class="st3">Рубцовск</text>		</g>
		<g id="shape637-207" transform="translate(481.89,-170.079)">
			<title>Лист.637</title>
			<desc>Озимая</desc>
			<rect x="0" y="837.392" width="31.4364" height="4.49772" class="st2"/>
			<text x="0" y="841.14" class="st3">Озимая</text>		</g>
		<g id="shape638-210" transform="translate(496.063,-179.204)">
			<title>Лист.638</title>
			<desc>Поспелиха</desc>
			<rect x="0" y="837.392" width="46.0453" height="4.49772" class="st2"/>
			<text x="0" y="841.14" class="st3">Поспелиха</text>		</g>
		<g id="shape639-213" transform="translate(517.266,-190.22)">
			<title>Лист.639</title>
			<desc>Шипуново</desc>
			<rect x="0" y="837.392" width="42.6325" height="4.49772" class="st2"/>
			<text x="0" y="841.14" class="st3">Шипуново</text>		</g>
		<g id="shape640-216" transform="translate(536.827,-201.637)">
			<title>Лист.640</title>
			<desc>Язевка-Сибирская</desc>
			<rect x="0" y="837.392" width="79.7087" height="4.49772" class="st2"/>
			<text x="0" y="841.14" class="st3">Язевка-Сибирская</text>		</g>
		<g id="shape641-219" transform="translate(571.89,-226.772)">
			<title>Лист.641</title>
			<desc>Топчиха</desc>
			<rect x="0" y="837.392" width="32.5984" height="4.49772" class="st2"/>
			<text x="0" y="841.14" class="st3">Топчиха</text>		</g>
		<g id="shape642-222" transform="translate(582.106,-274.129)">
			<title>Лист.642</title>
			<desc>Южный</desc>
			<rect x="0" y="837.392" width="26.3384" height="4.49772" class="st2"/>
			<text x="0" y="841.14" class="st3">Южный</text>		</g>
		<g id="shape643-225" transform="translate(581.102,-259.335)">
			<title>Лист.643</title>
			<desc>Ползуново</desc>
			<rect x="0" y="837.392" width="42.6377" height="4.49772" class="st2"/>
			<text x="0" y="841.14" class="st3">Ползуново</text>		</g>
		<g id="shape644-228" transform="translate(582.122,-244.401)">
			<title>Лист.644</title>
			<desc>Калманка</desc>
			<rect x="0" y="837.392" width="40.4806" height="4.49772" class="st2"/>
			<text x="0" y="841.14" class="st3">Калманка</text>		</g>
		<g id="shape645-231" transform="translate(605.5,-293.14)">
			<title>Лист.645</title>
			<desc>Кузнечная</desc>
			<rect x="0" y="837.392" width="46.4682" height="4.49772" class="st2"/>
			<text x="0" y="841.14" class="st3">Кузнечная</text>		</g>
		<g id="shape646-234" transform="translate(623.622,-282.633)">
			<title>Лист.646</title>
			<desc>Баюново</desc>
			<rect x="0" y="837.392" width="50.1119" height="4.49772" class="st2"/>
			<text x="0" y="841.14" class="st3">Баюново</text>		</g>
		<g id="shape647-237" transform="translate(636.554,-269.877)">
			<title>Лист.647</title>
			<desc>Овчинниково</desc>
			<rect x="0" y="837.392" width="59.176" height="4.49772" class="st2"/>
			<text x="0" y="841.14" class="st3">Овчинниково</text>		</g>
		<g id="shape648-240" transform="translate(651.969,-257.953)">
			<title>Лист.648</title>
			<desc>Гордеево</desc>
			<rect x="0" y="837.392" width="45.8119" height="4.49772" class="st2"/>
			<text x="0" y="841.14" class="st3">Гордеево</text>		</g>
		<g id="shape649-243" transform="translate(667.834,-243.534)">
			<title>Лист.649</title>
			<desc>Большая Речка</desc>
			<rect x="0" y="837.392" width="62.0871" height="4.49772" class="st2"/>
			<text x="0" y="841.14" class="st3">Большая Речка</text>		</g>
		<g id="shape650-246" transform="translate(687.402,-227.357)">
			<title>Лист.650</title>
			<desc>Буланиха</desc>
			<rect x="0" y="837.392" width="44.7177" height="4.49772" class="st2"/>
			<text x="0" y="841.14" class="st3">Буланиха</text>		</g>
		<g id="shape651-249" transform="translate(701.575,-213.184)">
			<title>Лист.651</title>
			<desc>Зональный</desc>
			<rect x="0" y="837.392" width="44.7177" height="4.49772" class="st2"/>
			<text x="0" y="841.14" class="st3">Зональный</text>		</g>
		<g id="shape652-252" transform="translate(722.835,-196.176)">
			<title>Лист.652</title>
			<desc>Бийск (п. Чемровка)</desc>
			<rect x="0" y="837.392" width="63.3461" height="4.49772" class="st2"/>
			<text x="0" y="841.14" class="st3">Бийск (п. Чемровка)</text>		</g>
		<g id="shape653-255" transform="translate(740.306,-177.165)">
			<title>Лист.653</title>
			<desc>Бийск</desc>
			<rect x="0" y="836.75" width="25.0486" height="5.14025" class="st2"/>
			<text x="0" y="840.82" class="st3">Бийск</text>		</g>
		<g id="shape848-258" transform="translate(-284.882,476.22) rotate(-90)">
			<title>Лист.848</title>
			<desc>Ларичиха</desc>
			<rect x="0" y="837.392" width="40.108" height="4.49772" class="st2"/>
			<text x="0" y="841.14" class="st3">Ларичиха</text>		</g>
		<g id="shape1029-261" transform="translate(552.756,-212.598)">
			<title>Лист.1029</title>
			<desc>Алейская</desc>
			<rect x="0" y="837.392" width="51.4932" height="4.49772" class="st2"/>
			<text x="0" y="841.14" class="st3">Алейская</text>		</g>
		<g id="shape1039-264" transform="translate(-803.421,331.082) rotate(-90)">
			<title>Лист.1039</title>
			<desc>Южно-Уральская ж.д.</desc>
			<rect x="0" y="821.89" width="152" height="20" class="st2"/>
			<text x="45.72" y="833.69" class="st5">Южно-Уральская ж.д.</text>		</g>
		<g id="shape1042-267" transform="translate(113.414,-396.028)">
			<title>Лист.1042</title>
			<rect x="0" y="821.89" width="152" height="20" class="st2"/>
		</g>
		<g id="shape1043-269" transform="translate(94.5164,-459.808)">
			<title>Лист.1043</title>
			<rect x="0" y="821.89" width="152" height="20" class="st2"/>
		</g>
		<g id="group1066-271" transform="translate(336.816,-103.501)">
			<title>Лист.1066</title>
			<g id="shape1067-272" transform="translate(-1.39888E-14,-1.96081)">
				<title>Лист.1067</title>
				<path d="M0 832.51 L1.14 832.51 L1.14 836.6 L1.52 836.6 L1.82 836.52 L2.05 836.43 L2.2 836.26 L2.58 835.75 L3.04
							 834.73 L3.34 833.88 L3.57 833.36 L3.87 833.02 L4.25 832.77 L4.71 832.51 L5.16 832.51 L5.69 832.51 L5.84
							 832.51 L5.84 833.54 L5.77 833.54 L5.62 833.54 L5.47 833.54 L5.39 833.54 L5.16 833.54 L4.93 833.62 L4.78
							 833.71 L4.63 833.88 L4.33 834.3 L4.02 835.07 L3.64 836.09 L3.26 836.6 L2.96 836.86 L2.58 837.12 L2.96
							 837.29 L3.42 837.63 L3.8 838.14 L4.17 838.74 L5.92 841.89 L4.55 841.89 L3.11 839.33 L2.58 838.48 L2.13
							 837.88 L1.97 837.71 L1.75 837.63 L1.44 837.54 L1.14 837.46 L1.14 841.89 L0 841.89 L0 832.51 L0 832.51
							 Z" class="st4"/>
			</g>
			<g id="shape1068-274" transform="translate(6.37588,-1.7903)">
				<title>Лист.1068</title>
				<path d="M4.4 840.87 L3.8 841.38 L3.26 841.63 L2.73 841.8 L2.13 841.89 L1.67 841.8 L1.21 841.72 L0.83 841.55 L0.53
							 841.29 L0.3 841.04 L0.15 840.7 L0.08 840.36 L0 839.93 L0.08 839.42 L0.23 838.99 L0.46 838.65 L0.76 838.31
							 L1.14 838.14 L1.52 837.97 L1.9 837.88 L2.43 837.8 L3.49 837.63 L4.25 837.37 L4.25 837.2 L4.33 837.12
							 L4.25 836.77 L4.25 836.52 L4.1 836.26 L4.02 836.09 L3.8 835.92 L3.49 835.84 L3.19 835.75 L2.81 835.75
							 L2.5 835.75 L2.2 835.75 L1.9 835.84 L1.75 836.01 L1.59 836.18 L1.44 836.43 L1.29 836.69 L1.21 837.03
							 L0.23 836.86 L0.38 836.18 L0.68 835.67 L0.83 835.5 L1.06 835.33 L1.29 835.15 L1.59 834.98 L2.2 834.81
							 L2.96 834.73 L3.64 834.81 L4.25 834.98 L4.63 835.15 L4.93 835.5 L5.16 835.84 L5.31 836.26 L5.31 836.69
							 L5.31 837.29 L5.31 838.91 L5.31 840.18 L5.39 840.87 L5.47 841.29 L5.69 841.72 L4.55 841.72 L4.48 841.38
							 L4.4 840.87 L4.4 840.87 ZM4.25 838.31 L3.57 838.56 L2.58 838.74 L2.05 838.82 L1.67 838.99 L1.44 839.16
							 L1.29 839.33 L1.14 839.59 L1.14 839.93 L1.14 840.1 L1.21 840.36 L1.29 840.53 L1.44 840.7 L1.59 840.78
							 L1.82 840.87 L2.05 840.95 L2.35 840.95 L2.96 840.87 L3.42 840.7 L3.64 840.53 L3.87 840.36 L4.02 840.1
							 L4.1 839.84 L4.25 839.42 L4.25 838.74 L4.25 838.31 L4.25 838.31 Z" class="st4"/>
			</g>
			<g id="shape1069-276" transform="translate(12.6759,-1.7903)">
				<title>Лист.1069</title>
				<path d="M1.9 838.65 L1.9 837.71 L2.43 837.71 L2.73 837.71 L2.96 837.54 L3.19 837.37 L3.34 837.12 L3.42 836.77 L3.42
							 836.52 L3.34 836.35 L3.26 836.09 L3.11 836.01 L2.81 835.75 L2.43 835.67 L2.05 835.75 L1.67 836.01 L1.37
							 836.35 L1.21 836.86 L0.23 836.69 L0.38 836.26 L0.53 835.84 L0.76 835.5 L0.99 835.24 L1.29 834.98 L1.59
							 834.9 L1.97 834.81 L2.43 834.73 L2.88 834.81 L3.34 834.9 L3.64 835.07 L3.95 835.33 L4.17 835.67 L4.4
							 836.01 L4.48 836.35 L4.55 836.77 L4.48 837.2 L4.33 837.54 L4.1 837.8 L3.8 838.14 L4.17 838.39 L4.48
							 838.82 L4.63 839.25 L4.71 839.84 L4.71 840.27 L4.55 840.61 L4.4 841.04 L4.1 841.29 L3.8 841.55 L3.42
							 841.72 L2.96 841.8 L2.43 841.89 L1.97 841.89 L1.52 841.72 L1.14 841.55 L0.76 841.38 L0.53 841.04 L0.3
							 840.7 L0.15 840.27 L0 839.84 L0.99 839.59 L1.06 839.84 L1.21 840.18 L1.37 840.36 L1.52 840.61 L1.75
							 840.78 L1.97 840.87 L2.2 840.95 L2.43 840.95 L2.73 840.95 L2.96 840.87 L3.11 840.78 L3.34 840.61 L3.49
							 840.44 L3.57 840.27 L3.64 840.01 L3.72 839.76 L3.64 839.42 L3.49 839.08 L3.26 838.82 L2.96 838.74 L2.66
							 838.65 L2.13 838.65 L2.05 838.65 L1.9 838.65 L1.9 838.65 Z" class="st4"/>
			</g>
			<g id="shape1070-278" transform="translate(18.2168,-1.7903)">
				<title>Лист.1070</title>
				<path d="M4.4 840.87 L3.8 841.38 L3.26 841.63 L2.73 841.8 L2.13 841.89 L1.67 841.8 L1.21 841.72 L0.83 841.55 L0.53
							 841.29 L0.3 841.04 L0.15 840.7 L0.08 840.36 L0 839.93 L0.08 839.42 L0.23 838.99 L0.46 838.65 L0.76 838.31
							 L1.14 838.14 L1.52 837.97 L1.9 837.88 L2.43 837.8 L3.49 837.63 L4.25 837.37 L4.25 837.2 L4.25 837.12
							 L4.25 836.77 L4.25 836.52 L4.1 836.26 L4.02 836.09 L3.8 835.92 L3.49 835.84 L3.19 835.75 L2.81 835.75
							 L2.5 835.75 L2.2 835.75 L1.9 835.84 L1.75 836.01 L1.59 836.18 L1.44 836.43 L1.29 836.69 L1.21 837.03
							 L0.23 836.86 L0.38 836.18 L0.68 835.67 L0.83 835.5 L1.06 835.33 L1.29 835.15 L1.59 834.98 L2.2 834.81
							 L2.96 834.73 L3.64 834.81 L4.25 834.98 L4.63 835.15 L4.93 835.5 L5.16 835.84 L5.31 836.26 L5.31 836.69
							 L5.31 837.29 L5.31 838.91 L5.31 840.18 L5.39 840.87 L5.47 841.29 L5.69 841.72 L4.55 841.72 L4.48 841.38
							 L4.4 840.87 L4.4 840.87 ZM4.25 838.31 L3.57 838.56 L2.58 838.74 L2.05 838.82 L1.67 838.99 L1.44 839.16
							 L1.29 839.33 L1.14 839.59 L1.14 839.93 L1.14 840.1 L1.21 840.36 L1.29 840.53 L1.44 840.7 L1.59 840.78
							 L1.82 840.87 L2.05 840.95 L2.35 840.95 L2.96 840.87 L3.42 840.7 L3.64 840.53 L3.87 840.36 L4.02 840.1
							 L4.1 839.84 L4.25 839.42 L4.25 838.74 L4.25 838.31 L4.25 838.31 Z" class="st4"/>
			</g>
			<g id="shape1071-280" transform="translate(24.4409,-1.96081)">
				<title>Лист.1071</title>
				<path d="M0 841.89 L2.28 838.39 L0.15 835.07 L1.52 835.07 L2.43 836.69 L2.66 837.12 L2.88 837.46 L3.11 837.03 L3.34
							 836.69 L4.33 835.07 L5.62 835.07 L3.49 838.31 L5.77 841.89 L4.48 841.89 L3.19 839.76 L2.88 839.25 L1.29
							 841.89 L0 841.89 L0 841.89 Z" class="st4"/>
			</g>
			<g id="shape1072-282" transform="translate(30.5891,-1.7903)">
				<title>Лист.1072</title>
				<path d="M4.33 839.25 L5.31 839.42 L5.24 839.93 L5.01 840.44 L4.78 840.87 L4.48 841.21 L4.1 841.55 L3.72 841.72 L3.26
							 841.8 L2.81 841.89 L2.2 841.8 L1.67 841.63 L1.21 841.38 L0.76 840.95 L0.46 840.44 L0.23 839.84 L0.08
							 839.16 L0 838.31 L0 837.8 L0.08 837.29 L0.23 836.86 L0.38 836.43 L0.53 836.01 L0.76 835.67 L1.06 835.41
							 L1.37 835.15 L1.67 834.98 L2.05 834.9 L2.43 834.81 L2.81 834.73 L3.26 834.81 L3.72 834.9 L4.1 835.07
							 L4.4 835.33 L4.71 835.67 L4.93 836.01 L5.16 836.43 L5.24 836.95 L4.25 837.12 L4.17 836.77 L4.02 836.52
							 L3.87 836.26 L3.72 836.09 L3.57 835.92 L3.34 835.75 L3.11 835.75 L2.81 835.67 L2.5 835.75 L2.13 835.84
							 L1.82 836.09 L1.59 836.35 L1.37 836.69 L1.21 837.12 L1.14 837.71 L1.06 838.31 L1.14 838.99 L1.21 839.5
							 L1.37 839.93 L1.52 840.27 L1.82 840.61 L2.13 840.78 L2.43 840.87 L2.81 840.95 L3.11 840.87 L3.34 840.87
							 L3.57 840.7 L3.8 840.53 L4.02 840.27 L4.17 840.01 L4.25 839.67 L4.33 839.25 L4.33 839.25 Z"
						class="st4"/>
			</g>
			<g id="shape1073-284" transform="translate(36.8131,-1.96081)">
				<title>Лист.1073</title>
				<path d="M0 835.07 L1.06 835.07 L1.06 838.05 L1.44 837.97 L1.75 837.8 L1.97 837.37 L2.35 836.6 L2.58 835.92 L2.81
							 835.5 L3.04 835.33 L3.26 835.15 L3.57 835.07 L4.02 835.07 L4.25 835.07 L4.25 836.01 L3.95 836.01 L3.64
							 836.09 L3.42 836.18 L3.26 836.43 L3.04 837.03 L2.81 837.54 L2.66 837.97 L2.35 838.14 L2.05 838.39 L2.35
							 838.56 L2.73 838.82 L3.04 839.25 L3.34 839.76 L4.48 841.89 L3.34 841.89 L2.2 839.76 L1.9 839.25 L1.67
							 838.91 L1.37 838.82 L1.06 838.74 L1.06 841.89 L0 841.89 L0 835.07 L0 835.07 Z" class="st4"/>
			</g>
			<g id="shape1074-286" transform="translate(41.9746,-1.96081)">
				<title>Лист.1074</title>
				<path d="M0 835.07 L1.06 835.07 L1.06 840.27 L3.95 835.07 L5.01 835.07 L5.01 841.89 L4.02 841.89 L4.02 836.69 L1.14
							 841.89 L0 841.89 L0 835.07 L0 835.07 Z" class="st4"/>
			</g>
			<g id="shape1075-288" transform="translate(48.1986,-1.7903)">
				<title>Лист.1075</title>
				<path d="M4.55 839.5 L5.62 839.67 L5.47 840.18 L5.24 840.61 L5.01 840.95 L4.71 841.29 L4.33 841.55 L3.95 841.72 L3.42
							 841.8 L2.96 841.89 L2.28 841.8 L1.75 841.63 L1.21 841.38 L0.83 840.95 L0.46 840.44 L0.23 839.84 L0.08
							 839.16 L0 838.39 L0.08 837.54 L0.23 836.86 L0.46 836.26 L0.83 835.67 L1.21 835.33 L1.75 834.98 L2.28
							 834.81 L2.88 834.73 L3.49 834.81 L4.02 834.98 L4.48 835.24 L4.86 835.67 L5.24 836.18 L5.47 836.77 L5.62
							 837.54 L5.69 838.31 L5.69 838.39 L5.69 838.65 L1.14 838.65 L1.14 839.16 L1.29 839.59 L1.44 840.01 L1.67
							 840.36 L1.97 840.61 L2.28 840.78 L2.58 840.87 L2.96 840.95 L3.19 840.95 L3.49 840.87 L3.72 840.78 L3.95
							 840.61 L4.1 840.44 L4.25 840.18 L4.4 839.84 L4.55 839.5 L4.55 839.5 ZM1.14 837.63 L4.55 837.63 L4.55
							 837.29 L4.48 836.95 L4.33 836.6 L4.17 836.35 L3.95 836.09 L3.64 835.84 L3.26 835.75 L2.88 835.67 L2.58
							 835.75 L2.28 835.84 L1.97 836.01 L1.67 836.26 L1.52 836.52 L1.29 836.86 L1.21 837.2 L1.14 837.63 L1.14
							 837.63 Z" class="st4"/>
			</g>
			<g id="shape1076-290" transform="translate(57.6107,-1.96081)">
				<title>Лист.1076</title>
				<path d="M4.48 835.07 L4.48 838.05 L4.93 837.97 L5.16 837.8 L5.47 837.37 L5.77 836.6 L6.15 835.75 L6.45 835.33 L6.6
							 835.24 L6.83 835.15 L7.06 835.07 L7.36 835.07 L7.74 835.07 L7.74 836.01 L7.44 836.01 L7.06 836.09 L6.91
							 836.18 L6.76 836.43 L6.53 837.03 L6.3 837.54 L6.07 837.97 L5.84 838.14 L5.47 838.39 L5.84 838.56 L6.15
							 838.82 L6.45 839.25 L6.83 839.76 L7.97 841.89 L6.83 841.89 L5.69 839.76 L5.39 839.25 L5.09 838.91 L4.86
							 838.82 L4.48 838.74 L4.48 841.89 L3.42 841.89 L3.42 838.74 L3.11 838.82 L2.81 838.91 L2.58 839.25 L2.28
							 839.76 L1.14 841.89 L0 841.89 L1.14 839.76 L1.44 839.25 L1.75 838.82 L2.13 838.56 L2.43 838.39 L2.05
							 838.14 L1.82 837.88 L1.59 837.37 L1.21 836.52 L1.14 836.26 L0.99 836.09 L0.76 836.09 L0.53 836.01 L0.46
							 836.01 L0.23 836.01 L0.23 835.07 L0.38 835.07 L0.91 835.07 L1.21 835.15 L1.44 835.33 L1.67 835.5 L1.9
							 835.92 L2.13 836.6 L2.5 837.37 L2.73 837.8 L3.04 837.97 L3.42 838.05 L3.42 835.07 L4.48 835.07 L4.48
							 835.07 Z" class="st4"/>
			</g>
			<g id="shape1077-292" transform="translate(66.5673,-1.96081)">
				<title>Лист.1077</title>
				<path d="M0 841.89 L0 840.61 L1.21 840.61 L1.21 841.89 L0 841.89 L0 841.89 Z" class="st4"/>
			</g>
			<g id="shape1078-294" transform="translate(68.7684,0)">
				<title>Лист.1078</title>
				<path d="M1.67 833.11 L5.92 833.11 L5.92 838.99 L6.53 838.99 L6.53 841.89 L5.69 841.89 L5.69 839.93 L0.91 839.93
							 L0.91 841.89 L0 841.89 L0 838.99 L0.61 838.99 L0.83 838.56 L1.06 837.97 L1.21 837.37 L1.37 836.69 L1.52
							 835.92 L1.59 835.07 L1.59 834.13 L1.67 833.11 L1.67 833.11 ZM2.5 834.05 L2.43 835.67 L2.2 836.95 L1.97
							 838.05 L1.59 838.99 L4.86 838.99 L4.86 834.05 L2.5 834.05 L2.5 834.05 Z" class="st4"/>
			</g>
			<g id="shape1079-296" transform="translate(76.7383,-1.96081)">
				<title>Лист.1079</title>
				<path d="M0 841.89 L0 840.61 L1.21 840.61 L1.21 841.89 L0 841.89 L0 841.89 Z" class="st4"/>
			</g>
		</g>
		<g id="shape1081-298" transform="translate(819.427,1221.44) rotate(143.458)">
			<title>Лист.1081</title>
			<path d="M0 841.89 L74.44 841.89" class="st6"/>
		</g>
		<g id="shape121-301" transform="translate(281.103,1278.06) rotate(-158.768)">
			<title>Лист.121</title>
			<path d="M0 841.89 L15.89 841.89" class="st7"/>
		</g>
		<g id="shape300-304" transform="translate(329.266,1293.94) rotate(-163.301)">
			<title>Лист.300</title>
			<path d="M0 841.89 L17.76 841.89" class="st8"/>
		</g>
		<g id="shape594-307" transform="translate(357.699,1301.1) rotate(-166.504)">
			<title>Лист.594</title>
			<path d="M0 841.89 L14.58 841.89" class="st9"/>
		</g>
		<g id="shape595-310" transform="translate(357.368,1300.9) rotate(-167.471)">
			<title>Лист.595</title>
			<path d="M0 841.89 L13.07 841.89" class="st10"/>
		</g>
		<g id="shape1011-313" transform="translate(323.056,1292.97) rotate(-165.964)">
			<title>Лист.1011</title>
			<path d="M0 841.89 L17.53 841.89" class="st9"/>
		</g>
		<g id="shape1012-316" transform="translate(371.83,1302.4) rotate(-170.538)">
			<title>Лист.1012</title>
			<path d="M0 841.89 L17.24 841.89" class="st8"/>
		</g>
		<g id="shape22-319" transform="translate(1145.68,339.662) rotate(84.0866)">
			<title>Лист.22</title>
			<path d="M0 841.89 L16.57 841.89" class="st11"/>
		</g>
		<g id="shape26-322" transform="translate(1144.67,383.559) rotate(80.3689)">
			<title>Лист.26</title>
			<path d="M0 841.89 L20.94 841.89" class="st10"/>
		</g>
		<g id="shape39-325" transform="translate(457.528,-285.215) rotate(9.52941)">
			<title>Лист.39</title>
			<path d="M0 841.89 L12.26 841.89" class="st9"/>
		</g>
		<g id="shape98-328" transform="translate(400.151,-291.895) rotate(4.76364)">
			<title>Лист.98</title>
			<path d="M0 841.89 L17.07 841.89" class="st8"/>
		</g>
		<g id="shape99-331" transform="translate(466.766,-286.226) rotate(4.76364)">
			<title>Лист.99</title>
			<path d="M0 841.89 L17.07 841.89" class="st10"/>
		</g>
		<g id="shape111-334" transform="translate(478.428,-285.237) rotate(4.39871)">
			<title>Лист.111</title>
			<path d="M0 841.89 L18.48 841.89" class="st8"/>
		</g>
		<g id="shape240-337" transform="translate(496.853,-283.819) rotate(4.39871)">
			<title>Лист.240</title>
			<path d="M0 841.89 L18.48 841.89" class="st12"/>
		</g>
		<g id="shape241-340" transform="translate(518.383,-282.157) rotate(4.61065)">
			<title>Лист.241</title>
			<path d="M0 841.89 L17.63 841.89" class="st10"/>
		</g>
		<g id="shape104-343" transform="translate(540.592,-280.354) rotate(4.92711)">
			<title>Лист.104</title>
			<path d="M0 841.89 L16.5 841.89" class="st11"/>
		</g>
		<g id="shape237-346" transform="translate(549.294,-279.567) rotate(4.39871)">
			<title>Лист.237</title>
			<path d="M0 841.89 L18.48 841.89" class="st12"/>
		</g>
		<g id="shape238-349" transform="translate(573.065,-277.722) rotate(4.76364)">
			<title>Лист.238</title>
			<path d="M0 841.89 L17.07 841.89" class="st8"/>
		</g>
		<g id="shape242-352" transform="translate(520.157,-279.213)">
			<title>Лист.242</title>
			<path d="M0 841.89 L18.43 841.89" class="st10"/>
		</g>
		<g id="shape243-355" transform="translate(538.583,-279.213)">
			<title>Лист.243</title>
			<path d="M0 841.89 L17.01 841.89" class="st9"/>
		</g>
		<g id="shape244-358" transform="translate(234.256,-215.476) rotate(-22.4379)">
			<title>Лист.244</title>
			<path d="M0 841.89 L23.84 841.89" class="st11"/>
		</g>
		<g id="shape106-361" transform="translate(-224.933,299.266) rotate(-72.4179)">
			<title>Лист.106</title>
			<path d="M0 841.89 L6.81 841.89" class="st10"/>
		</g>
		<g id="shape108-364" transform="translate(-237.068,342.898) rotate(-75.9638)">
			<title>Лист.108</title>
			<path d="M0 841.89 L11.69 841.89" class="st9"/>
		</g>
		<g id="shape109-367" transform="translate(679.674,-288.844) rotate(6.82098)">
			<title>Лист.109</title>
			<path d="M0 841.89 L19.96 841.89" class="st9"/>
		</g>
		<g id="shape102-370" transform="translate(1417.45,612.529) rotate(94.0153)">
			<title>Лист.102</title>
			<path d="M0 841.89 L11.11 841.89" class="st8"/>
		</g>
		<g id="shape103-373" transform="translate(1415.02,643.734) rotate(95.3893)">
			<title>Лист.103</title>
			<path d="M0 841.89 L15.09 841.89" class="st9"/>
		</g>
		<g id="shape110-376" transform="translate(1417.32,579.685) rotate(90)">
			<title>Лист.110</title>
			<path d="M0 841.89 L14.17 841.89" class="st8"/>
		</g>
		<g id="shape112-379" transform="translate(1274.85,1062.46) rotate(123.822)">
			<title>Лист.112</title>
			<path d="M0 841.89 L20.86 841.89" class="st10"/>
		</g>
		<g id="shape105-382" transform="translate(1014.71,1322.16) rotate(147.617)">
			<title>Лист.105</title>
			<path d="M0 841.89 L25.86 841.89" class="st9"/>
		</g>
		<g id="shape96-385" transform="translate(982.514,1342.47) rotate(148.449)">
			<title>Лист.96</title>
			<path d="M0 841.89 L18.96 841.89" class="st8"/>
		</g>
		<g id="shape107-388" transform="translate(967.059,1351.96) rotate(148.392)">
			<title>Лист.107</title>
			<path d="M0 841.89 L21.63 841.89" class="st10"/>
		</g>
		<g id="shape229-391" transform="translate(903.585,1389.14) rotate(151.928)">
			<title>Лист.229</title>
			<path d="M0 841.89 L24.09 841.89" class="st9"/>
		</g>
		<g id="shape230-394" transform="translate(938.132,1367.91) rotate(147.529)">
			<title>Лист.230</title>
			<path d="M0 841.89 L18.48 841.89" class="st8"/>
		</g>
		<g id="shape234-397" transform="translate(721.666,1471.13) rotate(162.646)">
			<title>Лист.234</title>
			<path d="M0 841.89 L23.76 841.89" class="st9"/>
		</g>
		<g id="shape97-400" transform="translate(921.277,1370.83) rotate(145.784)">
			<title>Лист.97</title>
			<path d="M0 841.89 L42.85 841.89" class="st9"/>
		</g>
		<g id="shape206-403" transform="translate(947.636,1348.62) rotate(140.528)">
			<title>Лист.206</title>
			<path d="M0 841.89 L31.21 841.89" class="st13"/>
		</g>
		<g id="shape235-406" transform="translate(1111.3,-119.362) rotate(38.9093)">
			<title>Лист.235</title>
			<path d="M0 841.89 L21.83 841.89" class="st9"/>
		</g>
		<g id="shape122-409" transform="translate(1083.11,-139.678) rotate(35.0593)">
			<title>Лист.122</title>
			<path d="M0 841.89 L15.61 841.89" class="st10"/>
		</g>
		<g id="shape236-412" transform="translate(1145.4,-93.1615) rotate(39.2894)">
			<title>Лист.236</title>
			<path d="M0 841.89 L20.14 841.89" class="st8"/>
		</g>
		<g id="shape245-415" transform="translate(1160.99,-80.4056) rotate(39.2894)">
			<title>Лист.245</title>
			<path d="M0 841.89 L20.14 841.89" class="st10"/>
		</g>
		<g id="shape246-418" transform="translate(1194.38,-52.6737) rotate(40.8724)">
			<title>Лист.246</title>
			<path d="M0 841.89 L19.49 841.89" class="st8"/>
		</g>
		<g id="shape247-421" transform="translate(1171.51,-70.6091) rotate(37.5686)">
			<title>Лист.247</title>
			<path d="M0 841.89 L27.89 841.89" class="st10"/>
		</g>
		<g id="shape250-424" transform="translate(1246.63,-9.24719) rotate(42.2737)">
			<title>Лист.250</title>
			<path d="M0 841.89 L21.07 841.89" class="st8"/>
		</g>
		<g id="shape251-427" transform="translate(1291.21,32.5681) rotate(45)">
			<title>Лист.251</title>
			<path d="M0 841.89 L24.79 841.89" class="st10"/>
		</g>
		<g id="shape284-430" transform="translate(1275.61,18.7166) rotate(41.894)">
			<title>Лист.284</title>
			<path d="M0 841.89 L24.37 841.89" class="st8"/>
		</g>
		<g id="shape3-433" transform="translate(-250.909,654.809) rotate(-98.1301)">
			<title>Лист.3</title>
			<path d="M0 841.89 L10.02 841.89" class="st8"/>
		</g>
		<g id="shape4-436" transform="translate(-251.287,399.707) rotate(-81.3844)">
			<title>Лист.4</title>
			<path d="M0 841.89 L9.46 841.89" class="st8"/>
		</g>
		<g id="shape113-439" transform="translate(-259.37,516.472) rotate(-90)">
			<title>Лист.113</title>
			<path d="M0 841.89 L8.5 841.89" class="st11"/>
		</g>
		<g id="shape114-442" transform="translate(-236.697,313.902) rotate(-76.6727)">
			<title>Лист.114</title>
			<path d="M0 841.89 L15.06 841.89" class="st9"/>
		</g>
		<g id="shape115-445" transform="translate(444.114,-294.687) rotate(-9.46232)">
			<title>Лист.115</title>
			<path d="M0 841.89 L25.86 841.89" class="st11"/>
		</g>
		<g id="shape116-448" transform="translate(65.6494,-128.8) rotate(-37.875)">
			<title>Лист.116</title>
			<path d="M0 841.89 L16.16 841.89" class="st11"/>
		</g>
		<g id="shape117-451" transform="translate(937.199,-243.502) rotate(23.9625)">
			<title>Лист.117</title>
			<path d="M0 841.89 L13.96 841.89" class="st8"/>
		</g>
		<g id="shape118-454" transform="translate(608.031,-310.394)">
			<title>Лист.118</title>
			<path d="M0 841.89 L24.09 841.89" class="st7"/>
		</g>
		<g id="shape120-457" transform="translate(681.563,-308.941) rotate(3.36646)">
			<title>Лист.120</title>
			<path d="M0 841.89 L24.14 841.89" class="st9"/>
		</g>
		<g id="shape231-460" transform="translate(97.4126,1204.73) rotate(-143.746)">
			<title>Лист.231</title>
			<path d="M0 841.89 L15.82 841.89" class="st8"/>
		</g>
		<g id="shape9-463" transform="translate(-231.376,291.598) rotate(-76.1372)">
			<title>Лист.9</title>
			<path d="M0 841.89 L29.28 841.89" class="st8"/>
		</g>
		<g id="shape232-466" transform="translate(-240.473,342.373) rotate(-83.9275)">
			<title>Лист.232</title>
			<path d="M0 841.89 L13.4 841.89" class="st8"/>
		</g>
		<g id="shape239-469" transform="translate(-239.762,335.959) rotate(-84.4002)">
			<title>Лист.239</title>
			<path d="M0 841.89 L8.45 841.89" class="st9"/>
		</g>
		<g id="shape59-472" transform="translate(656.22,-308.976)">
			<title>Лист.59</title>
			<path d="M0 841.89 L24.09 841.89" class="st10"/>
		</g>
		<g id="shape60-475" transform="translate(702.757,-308.677) rotate(1.52753)">
			<title>Лист.60</title>
			<path d="M0 841.89 L21.27 841.89" class="st8"/>
		</g>
		<g id="shape61-478" transform="translate(736.144,-307.699) rotate(2.3533)">
			<title>Лист.61</title>
			<path d="M0 841.89 L20.71 841.89" class="st7"/>
		</g>
		<g id="shape71-481" transform="translate(722.268,-307.559)">
			<title>Лист.71</title>
			<path d="M0 841.89 L19.84 841.89" class="st8"/>
		</g>
		<g id="shape596-484" transform="translate(742.11,-307.559)">
			<title>Лист.596</title>
			<path d="M0 841.89 L24.66 841.89" class="st9"/>
		</g>
		<g id="shape765-487" transform="translate(766.772,-307.559)">
			<title>Лист.765</title>
			<path d="M0 841.89 L26.93 841.89" class="st8"/>
		</g>
		<g id="shape101-490" transform="translate(455.294,-286.423) rotate(7.37377)">
			<title>Лист.101</title>
			<path d="M0 841.89 L24.3 841.89" class="st10"/>
		</g>
		<g id="shape317-493" transform="translate(408.719,-289.437) rotate(2.5448)">
			<title>Лист.317</title>
			<path d="M0 841.89 L25.54 841.89" class="st12"/>
		</g>
		<g id="shape100-496" transform="translate(293.319,1286.94) rotate(-166.264)">
			<title>Лист.100</title>
			<path d="M0 841.89 L26.26 841.89" class="st9"/>
		</g>
		<g id="shape328-499" transform="translate(255.869,1277.7) rotate(-165.426)">
			<title>Лист.328</title>
			<path d="M0 841.89 L14.64 841.89" class="st8"/>
		</g>
		<g id="shape561-502" transform="translate(211.628,1265.6) rotate(-163.301)">
			<title>Лист.561</title>
			<path d="M0 841.89 L11.84 841.89" class="st7"/>
		</g>
		<g id="shape721-505" transform="translate(254.611,1276.53) rotate(-167.125)">
			<title>Лист.721</title>
			<path d="M0 841.89 L10.18 841.89" class="st9"/>
		</g>
		<g id="shape732-508" transform="translate(335.044,1289.8) rotate(-173.367)">
			<title>Лист.732</title>
			<path d="M0 841.89 L12.27 841.89" class="st7"/>
		</g>
		<g id="shape25-511" transform="translate(205.839,1266.3) rotate(-165.256)">
			<title>Лист.25</title>
			<path d="M0 841.89 L16.71 841.89" class="st8"/>
		</g>
		<g id="shape1002-514" transform="translate(223.047,1270.1) rotate(-167.593)">
			<title>Лист.1002</title>
			<path d="M0 841.89 L29.02 841.89" class="st9"/>
		</g>
		<g id="shape1013-517" transform="translate(195.125,1263.96) rotate(-167.622)">
			<title>Лист.1013</title>
			<path d="M0 841.89 L31.5 841.89" class="st7"/>
		</g>
		<g id="shape24-520" transform="translate(94.0349,1238.55) rotate(-162.669)">
			<title>Лист.24</title>
			<path d="M0 841.89 L18.25 841.89" class="st9"/>
		</g>
		<g id="shape1017-523" transform="translate(191.75,1260.34) rotate(-170.728)">
			<title>Лист.1017</title>
			<path d="M0 841.89 L19.38 841.89" class="st11"/>
		</g>
		<g id="shape23-526" transform="translate(-515.789,662.815) rotate(-99.4623)">
			<title>Лист.23</title>
			<path d="M0 841.89 L17.24 841.89" class="st8"/>
		</g>
		<g id="shape1018-529" transform="translate(-527.398,574.538) rotate(-94.5739)">
			<title>Лист.1018</title>
			<path d="M0 841.89 L14.22 841.89" class="st11"/>
		</g>
		<g id="shape1019-532" transform="translate(-530.162,451.186) rotate(-87.1376)">
			<title>Лист.1019</title>
			<path d="M0 841.89 L22.71 841.89" class="st8"/>
		</g>
		<g id="shape1020-535" transform="translate(-530.079,470.551) rotate(-90)">
			<title>Лист.1020</title>
			<path d="M0 841.89 L17.01 841.89" class="st10"/>
		</g>
		<g id="shape1021-538" transform="translate(-517.909,596.171) rotate(-99.7537)">
			<title>Лист.1021</title>
			<path d="M0 841.89 L10.82 841.89" class="st7"/>
		</g>
		<g id="shape119-541" transform="translate(-241.497,353.615) rotate(-82.4054)">
			<title>Лист.119</title>
			<path d="M0 841.89 L17.16 841.89" class="st9"/>
		</g>
		<g id="shape1062-544" transform="translate(-243.503,375.565) rotate(-85.0729)">
			<title>Лист.1062</title>
			<path d="M0 841.89 L16.5 841.89" class="st9"/>
		</g>
		<g id="shape1084-547" transform="translate(19.9645,1217.38) rotate(-159.974)">
			<title>Лист.1084</title>
			<path d="M0 841.89 L49.03 841.89" class="st13"/>
		</g>
	</g>
</svg>
